<svg id="visual" viewBox="0 0 900 600" width="900" height="600" xmlns="http://www.w3.org/2000/svg" xmlns:xlink="http://www.w3.org/1999/xlink" version="1.1"><path d="M0 519L16.7 521.8C33.3 524.7 66.7 530.3 100 532.5C133.3 534.7 166.7 533.3 200 536.5C233.3 539.7 266.7 547.3 300 550.2C333.3 553 366.7 551 400 547.5C433.3 544 466.7 539 500 541.3C533.3 543.7 566.7 553.3 600 556.2C633.3 559 666.7 555 700 550C733.3 545 766.7 539 800 536.5C833.3 534 866.7 535 883.3 535.5L900 536L900 601L883.3 601C866.7 601 833.3 601 800 601C766.7 601 733.3 601 700 601C666.7 601 633.3 601 600 601C566.7 601 533.3 601 500 601C466.7 601 433.3 601 400 601C366.7 601 333.3 601 300 601C266.7 601 233.3 601 200 601C166.7 601 133.3 601 100 601C66.7 601 33.3 601 16.7 601L0 601Z" fill="#406682" stroke-linecap="round" stroke-linejoin="miter"></path></svg>